<svg width="375" height="812" viewBox="0 0 375 812" fill="none" xmlns="http://www.w3.org/2000/svg">
<g clip-path="url(#clip0_1341_456)">
<rect width="375" height="812" fill="#5DCCFC"/>
<rect x="121" y="798" width="134" height="5" rx="2.5" fill="#F2F2F2"/>
<path opacity="0.4" d="M178.5 691.694C107.341 717.805 45.1835 634.765 -14.4017 661.303C-49.9813 669.864 -121.826 687.928 -124.57 691.694C-127.313 695.461 -130 778.872 -131 820.107L397.551 907C433.559 862.626 495.373 761.209 454.564 710.528C403.552 647.178 249.659 665.584 178.5 691.694Z" fill="white" fill-opacity="0.41"/>
<path opacity="0.4" d="M244.069 706.424C185.549 731.811 91.2281 691.617 44.5359 720.654C15.844 731.808 -6.58101 736.04 -8.44759 739.537C-10.3142 743.034 -3.26785 814.131 0.488642 849.242L450.547 865.251C475.61 823.65 515.825 730.809 476.181 692.248C426.627 644.048 303.202 680.771 244.069 706.424Z" fill="white" fill-opacity="0.41"/>
</g>
<defs>
<clipPath id="clip0_1341_456">
<rect width="375" height="812" fill="white"/>
</clipPath>
</defs>
</svg>
